<?xml version="1.0" encoding="UTF-8"?>
<svg xmlns="http://www.w3.org/2000/svg" xmlns:xlink="http://www.w3.org/1999/xlink" width="2064"
  height="2591" viewBox="0 0 2064 2591">
  <path fill-rule="nonzero"
    d="M 68.582031 0 C 66.890625 0 65.300781 1 64.617188 2.640625 C 49.46875 38.800781 33.71875 76.199219 33.628906 106.539062 C 33.550781 134.230469 46.445312 155.730469 59.949219 175.71875 L 59.949219 175.730469 C 52.414062 175.671875 44.992188 175.371094 37.472656 174.171875 C 27.210938 172.53125 16.585938 169.199219 5.585938 165.738281 C 5.15625 165.609375 4.722656 165.539062 4.296875 165.539062 C 2.824219 165.539062 1.417969 166.300781 0.625 167.609375 C -0.402344 169.300781 -0.140625 171.46875 1.257812 172.871094 L 1.261719 172.878906 C 11.230469 182.871094 21.8125 193.53125 36.980469 200.050781 C 51.5625 206.320312 70.167969 208.628906 88.085938 210.78125 L 88.027344 210.78125 C 127.152344 253.410156 166.617188 296.300781 215.761719 334.941406 C 230.558594 346.578125 246.292969 357.878906 261.785156 369 C 277.171875 380.050781 292.441406 391.011719 306.660156 402.191406 C 326.132812 417.511719 343.5625 433.179688 356.773438 450.019531 C 377.808594 476.828125 388.449219 506.960938 395.4375 538.628906 L 395.4375 538.640625 C 372.683594 510.710938 349.328125 483.929688 324.855469 469.339844 C 295.957031 452.121094 265.800781 452 236.960938 451.808594 L 236.933594 451.820312 C 235.792969 451.808594 234.707031 452.261719 233.898438 453.070312 C 233.085938 453.871094 232.632812 454.96875 232.636719 456.121094 C 232.722656 494.011719 232.699219 533.539062 256.304688 567.480469 C 279.351562 600.621094 324.738281 628.019531 369.191406 654.679688 L 369.132812 654.691406 C 371.476562 683.539062 373.40625 710.691406 367.109375 728.03125 C 365.828125 731.558594 364.191406 734.71875 362.058594 738.820312 C 358.910156 744.871094 354.964844 752.441406 350.417969 764.960938 C 342.890625 785.699219 333.769531 819.839844 323.648438 883.109375 C 303.347656 1010.019531 278.722656 1255.949219 308.882812 1409.269531 C 326.265625 1497.660156 361.828125 1555.210938 393.511719 1606.519531 C 417.042969 1644.632812 438.207031 1678.960938 448.835938 1720.09375 C 466.921875 1790.089844 454.648438 1880.246094 444.5 1954.386719 C 440.613281 1982.78125 437.042969 2008.839844 435.726562 2030.261719 C 433.410156 2067.929688 438.066406 2091.179688 442.304688 2112.347656 L 442.304688 2112.355469 C 445.910156 2130.347656 449.152344 2146.589844 447.757812 2169.28125 C 447.429688 2174.613281 446.835938 2180.359375 445.933594 2186.535156 L 445.933594 2186.542969 C 436.582031 2250.328125 393.613281 2362.808594 362.105469 2416.636719 C 339.761719 2454.804688 323.546875 2462.851562 309.597656 2469.925781 C 303.980469 2472.777344 298.261719 2475.660156 292.691406 2480.238281 C 273.378906 2496.113281 256.457031 2532.078125 240.183594 2566.417969 C 239.578125 2567.703125 239.640625 2569.203125 240.363281 2570.429688 C 241.082031 2571.65625 242.359375 2572.449219 243.777344 2572.542969 L 243.789062 2572.542969 L 243.882812 2572.550781 L 243.882812 2572.554688 C 261.582031 2573.746094 279.460938 2574.957031 296.386719 2574.957031 C 323.671875 2574.957031 349.332031 2571.84375 368.355469 2559.785156 C 392.640625 2544.394531 405.109375 2514.960938 414.488281 2493.074219 C 417.011719 2487.183594 419.289062 2481.871094 421.546875 2477.308594 C 432.054688 2456.039062 441.753906 2451.664062 451.855469 2446.960938 C 453.054688 2446.402344 453.929688 2445.320312 454.226562 2444.042969 L 454.238281 2443.996094 L 454.238281 2443.988281 C 476.210938 2348.800781 498.035156 2254.347656 524.300781 2196.363281 L 524.300781 2196.367188 C 536.363281 2169.730469 549.363281 2150.796875 562.695312 2131.402344 C 576.28125 2111.625 590.1875 2091.402344 603.300781 2062.445312 L 603.304688 2062.453125 C 605.183594 2058.292969 607.054688 2053.949219 608.894531 2049.421875 C 625.066406 2009.675781 639.746094 1954.289062 653.585938 1902.101562 C 663.0625 1866.367188 672.15625 1832.09375 681.085938 1805.085938 C 699.308594 1749.992188 716.863281 1725.09375 734.371094 1705.144531 L 734.421875 1705.148438 C 727.285156 1740.746094 721.597656 1776.628906 729.320312 1807.472656 C 733.351562 1823.570312 740.996094 1838.160156 749.066406 1853.613281 C 758.828125 1872.296875 769.433594 1892.636719 776.359375 1919.675781 C 783.289062 1946.71875 786.574219 1980.605469 789.527344 2011.140625 L 789.527344 2011.148438 C 791.875 2035.402344 794.023438 2057.78125 797.746094 2072.316406 L 797.746094 2072.320312 C 797.929688 2073.023438 798.128906 2073.769531 798.316406 2074.441406 L 798.320312 2074.441406 C 802.132812 2087.941406 807.617188 2093.914062 813.515625 2100.324219 C 821.132812 2108.597656 830.351562 2118.441406 839.742188 2151.671875 L 839.738281 2151.675781 C 840.105469 2152.96875 840.402344 2154.039062 840.765625 2155.398438 C 857.484375 2217.601562 874.097656 2354.589844 872.078125 2423.390625 C 870.472656 2478.15625 857.140625 2488.390625 845.339844 2498.136719 C 842.320312 2500.632812 839.085938 2503.296875 836.09375 2506.566406 C 820.847656 2523.230469 812.652344 2554.886719 804.800781 2584.753906 C 804.457031 2586.0625 804.75 2587.453125 805.589844 2588.515625 C 806.40625 2589.546875 807.648438 2590.144531 808.855469 2590.144531 C 808.886719 2590.144531 808.921875 2590.144531 808.957031 2590.140625 L 808.976562 2590.144531 L 809.089844 2590.140625 C 855.707031 2588.886719 904.714844 2587.734375 927.433594 2573.222656 C 945.34375 2561.78125 946.976562 2542.511719 948.445312 2527.3125 C 948.972656 2521.851562 949.460938 2516.886719 950.46875 2512.515625 C 954.285156 2495.933594 965.898438 2486.433594 978.914062 2475.972656 C 980.117188 2475.003906 980.710938 2473.460938 980.460938 2471.929688 C 959.492188 2343.902344 938.605469 2216.3125 934.851562 2150.929688 C 931.785156 2097.53125 940.171875 2086.777344 952.296875 2070.265625 C 954.953125 2066.644531 957.882812 2062.660156 960.914062 2057.984375 C 978.332031 2031.113281 999.335938 1981.289062 1008.441406 1939.59375 C 1013.320312 1917.234375 1014.769531 1897.214844 1016.058594 1879.417969 C 1017.140625 1864.65625 1018.101562 1851.570312 1020.71875 1839.585938 C 1020.851562 1838.96875 1021.03125 1838.167969 1021.179688 1837.554688 C 1027.351562 1811.511719 1042.109375 1790.265625 1057.660156 1768.460938 L 1057.710938 1768.464844 C 1093.300781 1769.855469 1128.898438 1771.226562 1160.601562 1771.226562 C 1179.128906 1771.226562 1196.378906 1770.757812 1211.558594 1769.542969 C 1251.5 1766.355469 1276.808594 1758.023438 1301.160156 1749.5625 L 1301.210938 1749.566406 C 1326.359375 1796.074219 1352.140625 1843.03125 1392.488281 1882.917969 C 1398.898438 1889.257812 1405.679688 1895.417969 1412.46875 1901.582031 C 1419.480469 1907.949219 1426.570312 1914.394531 1433.421875 1921.167969 C 1462.511719 1949.929688 1488.179688 1985.382812 1489.058594 2050.554688 C 1490.359375 2146.953125 1437.558594 2308.039062 1394.921875 2388.761719 C 1360.640625 2453.671875 1333.429688 2465.625 1314.761719 2474.019531 C 1310.320312 2476.015625 1306.011719 2477.945312 1302.160156 2480.351562 C 1281.410156 2493.296875 1275.800781 2518.6875 1270.53125 2541.503906 L 1270.480469 2541.761719 L 1270.480469 2541.769531 C 1270.121094 2543.953125 1271.46875 2546.050781 1273.601562 2546.625 C 1298.160156 2553.226562 1323.46875 2560.0625 1345.441406 2560.0625 C 1355.101562 2560.0625 1364.289062 2558.757812 1372.628906 2555.421875 C 1394.410156 2546.714844 1408.890625 2524.640625 1419.539062 2508.601562 L 1419.539062 2508.605469 C 1422.238281 2504.523438 1424.660156 2500.882812 1426.96875 2497.726562 C 1438.238281 2482.351562 1446.128906 2479.914062 1454.351562 2477.242188 C 1455.628906 2476.824219 1456.640625 2475.832031 1457.078125 2474.5625 L 1457.730469 2472.667969 L 1457.730469 2472.664062 C 1500.339844 2349.699219 1542.71875 2227.53125 1574.078125 2164.425781 C 1597.53125 2117.21875 1614.609375 2103.492188 1630.121094 2090.933594 C 1635.371094 2086.683594 1640.628906 2082.429688 1645.898438 2077.078125 C 1666.890625 2055.753906 1687.359375 2017.714844 1696.898438 1981.132812 C 1705.738281 1947.265625 1705.21875 1914.582031 1704.03125 1882.550781 L 1704.070312 1882.558594 C 1762.371094 1918.425781 1818.199219 1955.667969 1841.230469 2046.492188 C 1865.410156 2141.789062 1853.539062 2296.117188 1829.191406 2379.546875 C 1810 2445.300781 1783.238281 2466.351562 1762.320312 2482.914062 C 1756.910156 2487.199219 1751.671875 2491.339844 1747.050781 2495.894531 C 1724.25 2518.363281 1717.660156 2549.738281 1711.300781 2579.476562 C 1711.050781 2580.65625 1711.300781 2581.882812 1712 2582.863281 C 1712.691406 2583.84375 1713.769531 2584.488281 1714.96875 2584.640625 C 1733.371094 2586.941406 1752.078125 2589.289062 1770.269531 2589.289062 C 1776.691406 2589.289062 1783.078125 2588.992188 1789.390625 2588.300781 C 1813.171875 2585.683594 1836.949219 2577.214844 1847.480469 2561.722656 C 1853.53125 2552.820312 1854.820312 2542.019531 1856 2532.773438 C 1856.921875 2525.53125 1857.75 2519.238281 1860.058594 2513.992188 C 1865.398438 2501.828125 1879.191406 2494.253906 1895.019531 2485.800781 C 1896.261719 2485.136719 1897.101562 2483.910156 1897.269531 2482.515625 C 1917.601562 2310.824219 1937.871094 2139.9375 1966.101562 2052.996094 C 1976.46875 2021.066406 1987.910156 2000.507812 1996.558594 1984.957031 C 2001.679688 1975.753906 2006.089844 1967.871094 2008.488281 1960.472656 C 2013.269531 1945.753906 2010.039062 1933.296875 1995.199219 1915.113281 C 1986.421875 1904.363281 1973.328125 1891.269531 1958.699219 1876.640625 C 1939.339844 1857.273438 1917.109375 1835.023438 1897.628906 1811.148438 C 1871.578125 1779.230469 1851.058594 1745.101562 1848.539062 1711.847656 C 1844.488281 1658.203125 1887.03125 1604.914062 1928.421875 1553.449219 C 1946.519531 1530.941406 1964.289062 1508.871094 1976.960938 1487.738281 C 1986.089844 1472.519531 1992.578125 1457.800781 1997 1443.488281 L 1997.039062 1443.5 C 1992.699219 1461.140625 1986.378906 1479.210938 1980.46875 1496.070312 C 1974.101562 1514.25 1968.121094 1531.289062 1966.089844 1544.308594 C 1965.808594 1546.070312 1965.609375 1547.761719 1965.480469 1549.410156 C 1964.539062 1561.75 1968.359375 1573.039062 1979.25 1573.871094 L 1979.261719 1573.871094 C 1979.609375 1573.890625 1980.03125 1573.910156 1980.390625 1573.910156 C 1991.441406 1573.910156 2005.058594 1562.140625 2018.359375 1540.058594 C 2043.800781 1497.851562 2072.160156 1411.269531 2060.691406 1324.851562 C 2049.148438 1237.910156 1997.339844 1151.628906 1860.488281 1098.839844 C 1739.75 1052.269531 1552.589844 1031.679688 1402.378906 1031.679688 C 1383.019531 1031.679688 1364.269531 1032.03125 1346.328125 1032.699219 C 1259.378906 1035.960938 1191.878906 1047.011719 1132.039062 1056.808594 C 1084.058594 1064.660156 1041.140625 1071.671875 996.917969 1073.328125 L 996.921875 1073.339844 C 996.675781 1073.339844 995.859375 1073.371094 995.617188 1073.378906 C 989.035156 1073.609375 982.410156 1073.71875 975.765625 1073.71875 C 881.902344 1073.71875 782.035156 1051.480469 681.542969 1028.980469 L 681.488281 1028.980469 C 671.132812 1016.21875 661.140625 1003.5 653.296875 979.691406 C 645.261719 955.300781 639.480469 919.28125 633.679688 882.558594 L 633.625 882.570312 C 648.03125 867.640625 661.964844 853.960938 686.15625 849.5 L 686.160156 849.5 L 686.203125 849.488281 L 686.222656 849.5 C 694.214844 848.019531 703.441406 847.53125 712.972656 847.53125 C 721.882812 847.53125 730.910156 847.960938 739.339844 848.351562 C 746.488281 848.679688 753.222656 849 758.953125 849 C 762.054688 849 764.953125 848.910156 767.480469 848.660156 C 782.382812 847.199219 784.75 840.03125 787.476562 830.878906 C 788.480469 827.5 789.578125 823.828125 791.503906 819.660156 C 792.800781 816.839844 794.503906 813.738281 796.421875 810.25 C 798.617188 806.25 801.007812 801.921875 803.191406 797.179688 C 809.144531 784.269531 813.503906 768.429688 806.238281 750.859375 C 795.082031 723.890625 756.199219 693.550781 717.722656 664.140625 L 717.667969 664.140625 C 758.945312 642.199219 800.449219 619.53125 823.226562 591.621094 C 847.378906 562.03125 850.28125 526.910156 853.160156 493.359375 C 853.269531 492.101562 852.820312 490.859375 851.9375 489.96875 C 851.128906 489.148438 850.027344 488.691406 848.882812 488.691406 C 848.777344 488.691406 848.671875 488.691406 848.566406 488.699219 C 816.414062 491.070312 783.75 493.460938 747.757812 504.96875 C 713.285156 516 675.867188 535.371094 638.734375 554.839844 L 642.988281 497.871094 L 642.941406 497.871094 C 700.621094 440.769531 758.019531 383.988281 799.09375 350.121094 C 839.910156 316.449219 864.488281 305.519531 889.125 294.648438 L 889.085938 294.660156 C 908.710938 291.929688 929.160156 289.109375 944.4375 281.460938 C 960.011719 273.671875 969.984375 261.019531 979.425781 249.121094 C 980.546875 247.699219 980.484375 245.679688 979.273438 244.351562 C 978.550781 243.550781 977.550781 243.128906 976.535156 243.128906 C 976.53125 243.128906 976.53125 243.128906 976.53125 243.128906 L 976.527344 243.128906 C 975.84375 243.128906 975.15625 243.320312 974.546875 243.710938 C 961.460938 252.070312 948.925781 260.050781 938.074219 263.710938 C 931.328125 266 925.15625 266.621094 919.070312 266.621094 C 919.066406 266.621094 919.058594 266.621094 919.054688 266.621094 C 917.628906 266.621094 916.207031 266.578125 914.789062 266.53125 L 914.734375 266.53125 C 924.417969 250.820312 933.859375 234.25 938.230469 213.078125 C 943.058594 189.679688 941.644531 160.839844 940.285156 132.660156 C 940.199219 130.839844 938.785156 129.351562 936.960938 129.171875 C 936.839844 129.160156 936.714844 129.148438 936.59375 129.148438 C 934.917969 129.148438 933.433594 130.289062 933.019531 131.941406 C 922.359375 174.410156 911.910156 215.78125 890.351562 243.589844 C 870.054688 269.78125 839.679688 284.230469 807.816406 298.371094 C 809.21875 273.050781 811.09375 248.480469 819.496094 226.429688 C 828.558594 202.628906 845.308594 181.550781 862.53125 159.910156 C 863.65625 158.5 863.59375 156.480469 862.382812 155.140625 C 861.660156 154.339844 860.65625 153.921875 859.640625 153.921875 C 858.953125 153.921875 858.261719 154.109375 857.648438 154.511719 C 834.460938 169.390625 810.273438 184.820312 796.132812 213.53125 C 782.308594 241.609375 778.25 282.140625 774.355469 321.820312 L 774.308594 321.820312 L 725.078125 364.179688 C 722.929688 350.648438 720.171875 336.730469 713.375 322.679688 C 705.8125 307.039062 693.292969 291.371094 680.941406 276.109375 L 680.894531 276.121094 C 685.011719 265.519531 689.078125 254.160156 688.566406 238.191406 C 688.035156 221.550781 682.511719 199.949219 677.164062 178.941406 C 676.742188 177.300781 675.261719 176.160156 673.589844 176.160156 C 673.484375 176.160156 673.382812 176.160156 673.277344 176.179688 C 671.480469 176.320312 670.054688 177.75 669.90625 179.550781 C 668.269531 199.53125 666.65625 219.160156 663.898438 232.511719 C 661.625 243.519531 658.582031 250.210938 655.328125 256.371094 L 532.492188 178.910156 C 531.882812 178.519531 531.203125 178.339844 530.527344 178.339844 L 530.523438 178.339844 C 529.398438 178.339844 528.296875 178.851562 527.574219 179.808594 C 526.417969 181.339844 526.628906 183.5 528.058594 184.78125 C 579.855469 231.179688 631.171875 277.179688 657.917969 312.808594 C 683.761719 347.230469 686.492188 371.789062 688.796875 396.671875 L 688.75 396.671875 L 621.339844 467.148438 C 606.949219 457.410156 592.882812 447.519531 579 431.429688 C 564.183594 414.261719 549.515625 389.980469 534.621094 365.300781 C 533.933594 364.160156 532.71875 363.511719 531.457031 363.511719 C 530.976562 363.511719 530.492188 363.609375 530.027344 363.800781 C 528.332031 364.511719 527.425781 366.359375 527.886719 368.128906 C 535.335938 396.628906 542.964844 426 557.480469 447.441406 C 571.597656 468.308594 592.0625 481.46875 612.003906 493.96875 L 611.957031 493.96875 L 603.207031 552.648438 L 603.207031 552.660156 C 560.570312 547.53125 519.789062 543.140625 488.800781 542.390625 C 485.445312 542.308594 482.28125 542.269531 479.136719 542.269531 C 464.113281 542.269531 451.492188 543.160156 440.222656 544.550781 L 440.222656 544.558594 C 439.707031 539.640625 439.136719 534.929688 438.484375 530.519531 C 436.105469 514.421875 432.679688 502.179688 429.273438 490.320312 L 429.214844 490.328125 C 437.132812 472.511719 445.242188 453.851562 445.808594 431.070312 C 446.390625 407.941406 439.160156 380.839844 432.195312 354.558594 L 432.117188 354.308594 L 432.117188 354.300781 C 431.527344 352.53125 429.875 351.359375 428.042969 351.359375 C 427.902344 351.359375 427.757812 351.359375 427.617188 351.378906 C 425.617188 351.578125 424.023438 353.128906 423.777344 355.121094 L 423.589844 356.628906 C 419.9375 385.820312 416.332031 414.410156 412.691406 430.640625 C 410.21875 441.660156 407.808594 446.609375 405.488281 449.71875 C 383.292969 424.589844 360.980469 399.519531 339.539062 379.648438 C 317.761719 359.46875 296.941406 344.710938 276.363281 330.269531 L 276.308594 330.269531 C 280.832031 285.878906 285.578125 242.789062 305.171875 208.191406 C 325.132812 172.941406 360.714844 146.140625 397.285156 118.679688 C 398.972656 117.410156 399.492188 115.109375 398.507812 113.238281 C 397.746094 111.800781 396.261719 110.949219 394.707031 110.949219 C 394.246094 110.949219 393.785156 111.019531 393.328125 111.179688 C 371.035156 118.71875 348.125 126.449219 328.792969 138.539062 C 310.34375 150.078125 295.28125 165.488281 280.75 180.679688 C 270.164062 175.53125 260.363281 170.359375 252.222656 161.5 C 243.234375 151.730469 236.097656 137.308594 228.601562 122.070312 C 227.863281 120.570312 226.347656 119.671875 224.746094 119.671875 C 224.359375 119.671875 223.96875 119.71875 223.582031 119.828125 C 221.589844 120.390625 220.28125 122.289062 220.460938 124.289062 L 220.464844 124.308594 L 220.46875 124.371094 C 222.191406 143.339844 223.960938 163.121094 230.140625 179.378906 C 236.074219 194.988281 245.992188 207.160156 255.621094 218.640625 L 255.566406 218.640625 C 250.773438 235.261719 245.984375 252.03125 242.828125 267.308594 C 240.074219 280.621094 238.558594 292.78125 237.261719 304.621094 C 226.894531 297.429688 216.527344 289.828125 205.179688 279 C 192.046875 266.460938 177.585938 249.601562 162.886719 232.359375 L 162.828125 232.371094 C 169.492188 210.121094 176.117188 187.160156 175.363281 158.921875 C 174.589844 129.941406 166.046875 95.601562 157.679688 61.878906 C 157.199219 59.949219 155.46875 58.621094 153.515625 58.621094 C 153.375 58.621094 153.234375 58.621094 153.09375 58.640625 C 150.972656 58.839844 149.324219 60.570312 149.21875 62.699219 C 147.609375 95.5 146.007812 127.960938 142.492188 151.691406 C 139.480469 172 135.070312 185.890625 130.398438 199.078125 C 103.808594 173.191406 79.035156 147.820312 69.398438 117.140625 C 59.167969 84.578125 65.820312 45.519531 72.8125 5.03125 C 73.1875 2.871094 71.882812 0.78125 69.785156 0.171875 C 69.382812 0.0585938 68.980469 0 68.582031 0 Z M 68.582031 0 " />
</svg>
